Coordinates
version=1
nRows=13
nColumns=36
inDegrees=yes

Units are S.I. units (second, meters, Newtons, ...)
If the header above contains a line with 'inDegrees', this indicates whether rotational values are in degrees (yes) or radians (no).

endheader
time	pelvis_tilt	pelvis_list	pelvis_rotation	pelvis_tx	pelvis_ty	pelvis_tz	hip_flexion_r	hip_adduction_r	hip_rotation_r	knee_angle_r	knee_angle_r_beta	ankle_angle_r	subtalar_angle_r	mtp_angle_r	hip_flexion_l	hip_adduction_l	hip_rotation_l	knee_angle_l	knee_angle_l_beta	ankle_angle_l	subtalar_angle_l	mtp_angle_l	lumbar_extension	lumbar_bending	lumbar_rotation	arm_flex_r	arm_add_r	arm_rot_r	elbow_flex_r	pro_sup_r	arm_flex_l	arm_add_l	arm_rot_l	elbow_flex_l	pro_sup_l
      0.00000000	     11.72239448	     -1.33862941	      3.35047896	      0.37691978	      1.31000565	     -0.24613114	    -13.91324230	      1.24501105	      3.93351912	      0.19245332	      0.00335894	     12.12144854	     -3.02297998	     -6.23440293	    -17.20094906	     -3.89742946	     -3.08687387	      0.21160549	      0.00369321	     12.70682501	     -3.56112219	     -6.23440293	    -13.64453685	      2.79008993	      2.01082055	      3.06133590	    -13.01973249	      5.32668684	     13.53802310	     89.98704196	      2.34443225	    -14.02463105	      7.69935621	     14.89509061	     90.16112897
      0.01666670	      9.92247832	     -1.52998457	      2.48276006	      0.37802666	      1.30735720	     -0.24653980	    -11.96278287	      1.18147169	      4.41403592	      0.19681868	      0.00343513	     12.52949400	     -2.33110233	     -6.37700461	    -15.05875301	     -3.66142288	     -5.36045593	      0.19587457	      0.00341866	     12.11436989	     -4.02877442	     -6.37700461	    -11.71337148	      2.86159111	      3.61757007	      2.63546545	    -12.94250992	      6.44201327	     11.57069291	     90.02461128	      2.48089947	    -13.30352320	      7.42856002	     12.54800991	     89.63401909
      0.03333330	      9.28632383	     -1.58756859	      2.66324549	      0.37596695	      1.30705295	     -0.24726679	    -11.39931030	      1.22642575	      4.21133870	      0.20419975	      0.00356396	     12.00658517	     -2.12396066	     -6.96364740	    -14.03933385	     -3.71960465	     -6.53240601	      0.18142916	      0.00316654	     11.85452711	     -3.77701024	     -6.96364740	    -11.25861535	      2.78834346	      3.52359972	      2.48923102	    -12.98648416	      5.32472355	     11.15594374	     98.64492334	      3.27517502	    -12.90723467	      3.08410247	     11.76013818	     98.57323333
      0.05000000	      8.90609800	     -1.54065181	      2.82452824	      0.37556641	      1.30636891	     -0.24822458	    -10.90009359	      1.13435618	      3.38796946	      0.22818265	      0.00398254	     11.41207024	     -1.76780233	     -7.04178989	    -13.44556908	     -3.63238350	     -7.34530567	      0.19385817	      0.00338346	     11.49019277	     -4.08641852	     -7.04178989	    -10.98509167	      2.67630222	      3.42549275	      2.57448721	    -12.93871347	      6.26032043	     10.58196999	     97.75272526	      3.79127422	    -12.79142420	      3.55246737	     11.29839817	     97.59574029
      0.06666670	      9.27982275	     -1.52234347	      2.87324810	      0.37414330	      1.30733023	     -0.24858629	    -11.25516112	      1.14947608	      2.79010787	      0.25998337	      0.00453757	     11.04710682	     -1.12563830	     -7.08029930	    -13.76663324	     -3.58858694	     -7.60892502	      0.20726518	      0.00361746	     10.96284064	     -4.80629941	     -7.08029930	    -11.78996181	      2.61458456	      3.46899940	      2.50075359	    -12.98904280	      6.61172793	     11.10034886	     96.48321408	      3.94495946	    -12.76229392	      3.65815538	     12.07661121	     96.33379268
      0.08333330	      9.43632057	     -1.52874182	      2.73418034	      0.37465170	      1.30491521	     -0.24882713	    -11.38367543	      1.14697562	      3.03232969	      0.29187840	      0.00509424	     10.31480404	     -1.57106230	     -7.28298862	    -13.96283636	     -3.55759293	     -8.17396923	      0.23384055	      0.00408129	     10.98342423	     -4.23432330	     -7.28298862	    -12.06836746	      2.55780895	      3.73630356	      2.56821559	    -13.07664994	      7.07306661	     11.18845817	    101.62706382	      4.14670846	    -12.72392497	      2.28759200	     12.11623786	    103.04914891
      0.10000000	      9.49185366	     -1.50655423	      2.69492820	      0.37451551	      1.30556580	     -0.24862581	    -11.41611858	      1.12319892	      3.21330798	      0.31093617	      0.00542686	      9.81121471	     -1.90820333	     -7.25855875	    -14.07503363	     -3.53493540	     -8.39592318	      0.25962506	      0.00453131	     10.67235260	     -4.52708373	     -7.25855875	    -12.27145586	      2.47108792	      3.70961024	      2.54067032	    -13.04487214	      7.59199158	     11.54355243	    101.59443418	      4.03469609	    -12.80377301	      2.31302414	     12.40860928	    103.19045475
      0.11666670	      9.41886771	     -1.47576561	      2.59790374	      0.37608090	      1.30918874	     -0.24881692	    -11.36858360	      1.05950493	      3.25083572	      0.32050380	      0.00559385	      9.49985558	     -1.94762049	     -7.39007472	    -14.08361417	     -3.48736472	     -8.65902392	      0.27953910	      0.00487888	     10.45549767	     -4.62767775	     -7.39007472	    -12.30097762	      2.34931733	      3.55749651	      2.51419941	    -13.08375681	      8.87362086	     12.02570818	    101.44421036	      3.79781421	    -12.95695581	      2.72574007	     12.71052365	    104.26518226
      0.13333330	      9.18389350	     -1.47899842	      2.55408505	      0.37603511	      1.30606217	     -0.24846441	    -11.10426607	      1.06148638	      3.37198636	      0.31479999	      0.00549430	      9.03144046	     -2.22615453	     -7.45386635	    -13.86104150	     -3.46179445	     -8.86304197	      0.29279780	      0.00511029	     10.28169887	     -4.77736003	     -7.45386635	    -12.14598304	      2.27059712	      3.34721558	      2.22217701	    -13.01349428	      8.53492048	     12.36435507	    101.99642167	      3.43457758	    -13.03545053	      1.74222152	     13.24931052	    105.58600461
      0.15000000	      8.88764470	     -1.47773562	      2.47840141	      0.37783962	      1.30920102	     -0.24850265	    -10.84294315	      1.03911106	      3.64736135	      0.29953916	      0.00522794	      8.85331959	     -2.46756319	     -7.46773889	    -13.56778968	     -3.41892341	     -9.09578388	      0.28957353	      0.00505401	     10.30372375	     -4.88766168	     -7.46773889	    -11.74420830	      2.19407399	      3.20889745	      2.03223227	    -13.05493530	     10.22255194	     12.48821753	    100.47560479	      3.13581597	    -13.20191337	      3.19259754	     13.36126452	    104.01934122
      0.16666670	      8.54139194	     -1.48642451	      2.49491121	      0.37791623	      1.30881628	     -0.24821001	    -10.52001165	      1.06327242	      3.59650074	      0.28556931	      0.00498412	      8.86206397	     -2.31194009	     -7.47269697	    -13.18774651	     -3.39689216	     -9.28724979	      0.27982300	      0.00488383	     10.40350823	     -4.63955570	     -7.47269697	    -11.22638393	      2.16513452	      3.02304696	      1.87999180	    -12.94166317	     10.56999952	     12.32200663	     99.24095861	      2.93740375	    -13.23181193	      3.42402067	     13.16367259	    102.89884400
      0.18333330	      8.27497120	     -1.49267023	      2.47516010	      0.37924140	      1.30859484	     -0.24832958	    -10.26153200	      1.09147958	      3.65132613	      0.27020106	      0.00471590	      8.81298687	     -2.34798051	     -7.48337102	    -12.90420228	     -3.35982537	     -9.42426425	      0.26715811	      0.00466279	     10.47512263	     -4.62224534	     -7.48337102	    -10.93558463	      2.07943661	      2.85857357	      1.57274733	    -12.86363183	      9.17303331	     12.74705986	    102.49079050	      2.60327844	    -13.29928217	      2.14794441	     13.61589359	    106.52028241
      0.20000000	      8.08030791	     -1.53283225	      2.55687981	      0.37923829	      1.30853296	     -0.24820470	    -10.07523272	      1.16909524	      3.72564240	      0.26862959	      0.00468847	      8.78583373	     -2.37657731	     -7.48532536	    -12.68259781	     -3.38553898	     -9.43380508	      0.26218067	      0.00457592	     10.39981073	     -4.72738760	     -7.48532536	    -10.71428021	      2.08283983	      2.65561925	      1.49609760	    -12.77462694	      9.63393328	     12.60372772	    100.79783808	      2.48050601	    -13.31137565	      2.54682461	     13.50202517	    104.63746067
